<svg xmlns="http://www.w3.org/2000/svg" width="1600" height="900" viewBox="0 0 1600 900" role="img" aria-labelledby="title desc">
  <title id="title">Public Ops visual</title>
  <desc id="desc">A polished operations dashboard showing runbooks, templates, schemas, and evidence lanes.</desc>
  <rect width="1600" height="900" fill="#f4f7fb"/>
  <rect x="84" y="82" width="1432" height="736" rx="34" fill="#ffffff" stroke="#dbe4ee" stroke-width="3"/>
  <text x="132" y="166" fill="#111827" font-family="Arial, Helvetica, sans-serif" font-size="58" font-weight="700">Public Ops</text>
  <text x="134" y="216" fill="#64748b" font-family="Arial, Helvetica, sans-serif" font-size="28">Sanitized runbooks, module standards, and verification evidence</text>

  <rect x="132" y="292" width="310" height="358" rx="24" fill="#e0f2fe" stroke="#38bdf8" stroke-width="3"/>
  <text x="172" y="356" fill="#0c4a6e" font-family="Arial, Helvetica, sans-serif" font-size="31" font-weight="700">Runbooks</text>
  <rect x="172" y="404" width="214" height="24" rx="8" fill="#7dd3fc"/>
  <rect x="172" y="450" width="170" height="24" rx="8" fill="#7dd3fc"/>
  <rect x="172" y="496" width="232" height="24" rx="8" fill="#7dd3fc"/>
  <text x="172" y="576" fill="#075985" font-family="Arial, Helvetica, sans-serif" font-size="22">reviewable operations</text>

  <rect x="500" y="292" width="310" height="358" rx="24" fill="#ecfdf5" stroke="#34d399" stroke-width="3"/>
  <text x="540" y="356" fill="#064e3b" font-family="Arial, Helvetica, sans-serif" font-size="31" font-weight="700">Templates</text>
  <rect x="540" y="398" width="226" height="58" rx="14" fill="#bbf7d0"/>
  <rect x="540" y="478" width="226" height="58" rx="14" fill="#bbf7d0"/>
  <text x="540" y="576" fill="#047857" font-family="Arial, Helvetica, sans-serif" font-size="22">module-ready shape</text>

  <rect x="868" y="292" width="310" height="358" rx="24" fill="#fff7ed" stroke="#fb923c" stroke-width="3"/>
  <text x="908" y="356" fill="#7c2d12" font-family="Arial, Helvetica, sans-serif" font-size="31" font-weight="700">Schemas</text>
  <circle cx="952" cy="436" r="40" fill="#fed7aa"/>
  <circle cx="1078" cy="436" r="40" fill="#fed7aa"/>
  <path d="M992 436 H1038" stroke="#fb923c" stroke-width="8" stroke-linecap="round"/>
  <text x="908" y="576" fill="#c2410c" font-family="Arial, Helvetica, sans-serif" font-size="22">observable contracts</text>

  <rect x="1236" y="292" width="214" height="358" rx="24" fill="#eef2ff" stroke="#818cf8" stroke-width="3"/>
  <text x="1272" y="356" fill="#3730a3" font-family="Arial, Helvetica, sans-serif" font-size="31" font-weight="700">Evidence</text>
  <rect x="1272" y="410" width="142" height="34" rx="10" fill="#c7d2fe"/>
  <rect x="1272" y="470" width="142" height="34" rx="10" fill="#c7d2fe"/>
  <rect x="1272" y="530" width="142" height="34" rx="10" fill="#c7d2fe"/>
  <text x="1272" y="612" fill="#4338ca" font-family="Arial, Helvetica, sans-serif" font-size="22">safe reports</text>

  <text x="132" y="742" fill="#334155" font-family="Arial, Helvetica, sans-serif" font-size="25">docs -> standards -> checks -> evidence</text>
</svg>

